Coordinates
version=1
nRows=38
nColumns=38
inDegrees=no

Units are S.I. units (second, meters, Newtons, ...)
If the header above contains a line with 'inDegrees', this indicates whether rotational values are in degrees (yes) or radians (no).

endheader
time	pelvis_tilt	pelvis_list	pelvis_rotation	pelvis_tx	pelvis_ty	pelvis_tz	hip_flexion_r	hip_adduction_r	hip_rotation_r	knee_angle_r	ankle_angle_r	subtalar_angle_r	mtp_angle_r	hip_flexion_l	hip_adduction_l	hip_rotation_l	knee_angle_l	ankle_angle_l	subtalar_angle_l	mtp_angle_l	lumbar_extension	lumbar_bending	lumbar_rotation	arm_flex_r	arm_add_r	arm_rot_r	elbow_flex_r	pro_sup_r	wrist_flex_r	wrist_dev_r	arm_flex_l	arm_add_l	arm_rot_l	elbow_flex_l	pro_sup_l	wrist_flex_l	wrist_dev_l
15	-2.37668	1.41386	1.23806	0.622974	1.90101	0.902388	0.430459	-0.121143	0.0140967	1.04108	-0.225604	0	0	0.110958	-0.157862	-0.090831	0	-0.339825	0	0	0.120333	0.105755	0.0346316	-0.147581	-0.115078	-0.544606	0.757605	0.83052	0	0	0.170514	-0.176219	0.430371	0.438	1.5708	0	0
15.01	-2.37336	1.41525	1.22536	0.625309	1.90111	0.903057	0.426571	-0.115507	0.00755456	1.0275	-0.224917	0	0	0.103679	-0.155495	-0.0935126	0	-0.357426	0	0	0.115268	0.1053	0.037404	-0.14633	-0.112081	-0.546138	0.760859	0.839788	0	0	0.171598	-0.178153	0.421709	0.439303	1.5708	0	0
15.02	-2.37542	1.41453	1.21739	0.627472	1.90106	0.903536	0.423921	-0.109157	0.00239145	1.01149	-0.222807	0	0	0.0993901	-0.153379	-0.0996897	0	-0.368194	0	0	0.11374	0.104807	0.0394983	-0.145161	-0.109889	-0.5449	0.763061	0.848715	0	0	0.171055	-0.179563	0.411096	0.439564	1.5708	0	0
15.03	-2.38535	1.41315	1.21768	0.629777	1.90099	0.903981	0.420807	-0.103987	-0.0019667	0.992701	-0.218428	0	0	0.0977717	-0.150342	-0.113727	0	-0.379606	0	0	0.11448	0.10332	0.0399377	-0.142944	-0.108502	-0.540803	0.762924	0.866508	0	0	0.168664	-0.17911	0.393004	0.438704	1.5708	0	0
15.04	-2.42478	1.40399	1.24657	0.631498	1.9011	0.90347	0.430402	-0.0995503	-0.00150162	0.979768	-0.209062	0	0	0.107807	-0.146312	-0.130192	0	-0.385776	0	0	0.125582	0.0995204	0.0362687	-0.138501	-0.107863	-0.516806	0.760223	1.03019	0	0	0.191974	-0.138002	0.257303	0.384472	1.5708	0	0
15.05	-2.43161	1.40182	1.24292	0.633071	1.9009	0.903553	0.427822	-0.0916634	-0.0014915	0.962546	-0.200278	0	0	0.105833	-0.144618	-0.132474	0	-0.384901	0	0	0.127383	0.0969716	0.0385212	-0.136005	-0.107336	-0.509415	0.757403	1.0281	0	0	0.184986	-0.140856	0.232852	0.395843	1.5708	0	0
15.06	-2.45006	1.39909	1.25345	0.634952	1.90086	0.903629	0.425789	-0.0882053	-0.00481221	0.945602	-0.195004	0	0	0.106771	-0.140704	-0.139845	0	-0.38513	0	0	0.130827	0.0939016	0.0394325	-0.135283	-0.105778	-0.506867	0.757779	1.0268	0	0	0.185823	-0.142748	0.234476	0.391808	1.5708	0	0
15.07	-2.43302	1.40147	1.22491	0.636461	1.90002	0.904435	0.412525	-0.0777114	-0.00526003	0.921638	-0.186953	0	0	0.0898285	-0.140555	-0.139647	0	-0.392295	0	0	0.128491	0.0975624	0.0486514	-0.138497	-0.106076	-0.510689	0.760732	0.957653	0	0	0.169696	-0.183849	0.384796	0.42085	1.5708	0	0
15.08	-2.42657	1.40436	1.21054	0.63846	1.89926	0.904771	0.399278	-0.0729282	-0.0113338	0.900534	-0.179576	0	0	0.0853011	-0.139186	-0.142379	0	-0.38698	0	0	0.125408	0.0960489	0.0514644	-0.13974	-0.105986	-0.505683	0.763143	0.963068	0	0	0.166254	-0.18401	0.372116	0.425192	1.5708	0	0
15.09	-2.38118	1.42511	1.16055	0.642355	1.89743	0.906995	0.355574	-0.076186	-0.0328212	0.864624	-0.169145	0	0	0.0525979	-0.133164	-0.164372	0	-0.385117	0	0	0.102117	0.0956718	0.0467927	-0.139358	-0.110029	-0.492208	0.768343	0.971876	0	0	0.192128	-0.142265	0.252925	0.373767	1.5708	0	0
15.1	-2.22724	1.46716	1.01274	0.655158	1.89159	0.912439	0.25657	-0.106852	-0.116431	0.791464	-0.170516	0	0	-0.0173458	-0.113085	-0.227725	0	-0.392678	0	0	0.0689246	0.106526	0.0299441	-0.15502	-0.130241	-0.472755	0.780893	0.998756	0	0	0.191172	-0.120818	0.261545	0.338587	1.5708	0	0
15.11	-2.41393	1.42335	1.17991	0.645682	1.89645	0.90676	0.338592	-0.0708361	-0.0404726	0.820777	-0.149611	0	0	0.0484123	-0.12472	-0.171797	0	-0.379639	0	0	0.107746	0.090567	0.047545	-0.141646	-0.112605	-0.470414	0.772275	0.996619	0	0	0.192481	-0.144604	0.270693	0.364787	1.5708	0	0
15.12	-2.46725	1.40524	1.22474	0.645514	1.89737	0.905026	0.357119	-0.0617511	-0.0264337	0.808895	-0.1419	0	0	0.0706552	-0.12337	-0.158317	0	-0.374936	0	0	0.129509	0.0878222	0.0504025	-0.141616	-0.112009	-0.462596	0.770509	0.992793	0	0	0.163754	-0.184133	0.377368	0.411201	1.5708	0	0
15.13	-2.49827	1.39655	1.24717	0.645388	1.89802	0.904062	0.362951	-0.0557294	-0.0188673	0.79554	-0.13866	0	0	0.0805715	-0.121236	-0.149867	0	-0.3729	0	0	0.138265	0.0842019	0.053413	-0.140217	-0.110055	-0.457838	0.772009	0.990811	0	0	0.164328	-0.186177	0.380188	0.411055	1.5708	0	0
15.14	-2.50878	1.3974	1.25216	0.646729	1.89771	0.904081	0.350442	-0.0556172	-0.0264971	0.772466	-0.135284	0	0	0.0772038	-0.117523	-0.150088	0	-0.370093	0	0	0.137029	0.0816308	0.0506047	-0.138503	-0.112675	-0.443941	0.773151	0.982898	0	0	0.188857	-0.14577	0.253413	0.361097	1.5708	0	0
15.15	-2.52313	1.39492	1.25882	0.647684	1.89709	0.903842	0.342423	-0.0539899	-0.0310929	0.752472	-0.130893	0	0	0.0777228	-0.115375	-0.155208	0	-0.36855	0	0	0.14184	0.0803776	0.0542706	-0.140377	-0.113313	-0.438457	0.774764	0.98116	0	0	0.189087	-0.14355	0.260856	0.353869	1.5708	0	0
15.16	-2.54374	1.39083	1.26979	0.64826	1.89628	0.903348	0.33751	-0.0517661	-0.0315201	0.735564	-0.126663	0	0	0.0791261	-0.112719	-0.156819	0	-0.367948	0	0	0.148692	0.0783176	0.0577036	-0.141077	-0.112708	-0.433058	0.77561	0.998052	0	0	0.186988	-0.142426	0.25802	0.351133	1.5708	0	0
15.17	-2.55164	1.39097	1.2735	0.649555	1.8959	0.90354	0.323955	-0.0512081	-0.0378404	0.712121	-0.119592	0	0	0.077316	-0.109766	-0.155531	0	-0.366458	0	0	0.151019	0.0780604	0.0613735	-0.143671	-0.114313	-0.429663	0.777093	0.994646	0	0	0.165725	-0.174768	0.387697	0.38157	1.5708	0	0
15.18	-2.57065	1.38978	1.28789	0.650605	1.89543	0.903362	0.315198	-0.0531721	-0.0452899	0.695397	-0.114483	0	0	0.0772912	-0.105459	-0.155293	0	-0.365553	0	0	0.15451	0.0753428	0.062566	-0.144593	-0.114291	-0.427019	0.778326	0.993385	0	0	0.166568	-0.171367	0.390817	0.374301	1.5708	0	0
15.19	-2.58727	1.38862	1.29839	0.651368	1.89467	0.903139	0.305876	-0.0549115	-0.0533495	0.676856	-0.108888	0	0	0.075905	-0.101954	-0.15873	0	-0.364271	0	0	0.158386	0.0729835	0.0649464	-0.145277	-0.114873	-0.422317	0.778124	0.991523	0	0	0.167314	-0.167778	0.392867	0.366697	1.5708	0	0
15.2	-2.6034	1.38899	1.30745	0.651857	1.89373	0.90289	0.295806	-0.0577044	-0.0621789	0.659315	-0.1049	0	0	0.0729761	-0.0987187	-0.167937	0	-0.361526	0	0	0.159335	0.0698505	0.0648856	-0.143611	-0.116002	-0.413178	0.777467	0.987768	0	0	0.191995	-0.131124	0.283647	0.321199	1.5708	0	0
15.21	-2.61682	1.3913	1.31695	0.652722	1.89307	0.902989	0.284412	-0.0621878	-0.0733951	0.643321	-0.104136	0	0	0.0675948	-0.0940958	-0.167623	0	-0.360947	0	0	0.158477	0.0670156	0.0642271	-0.142047	-0.116433	-0.409248	0.776858	0.986712	0	0	0.191201	-0.127656	0.275732	0.320332	1.5708	0	0
15.22	-2.62002	1.3983	1.31492	0.653641	1.89181	0.903517	0.263692	-0.0664434	-0.0879235	0.617893	-0.105484	0	0	0.0559567	-0.0906216	-0.180351	0	-0.360763	0	0	0.153142	0.065649	0.0644691	-0.140581	-0.118319	-0.40268	0.776167	0.985175	0	0	0.189653	-0.123955	0.267668	0.318214	1.5708	0	0
15.23	-2.60548	1.41692	1.29608	0.655925	1.88931	0.905197	0.224121	-0.0743929	-0.114379	0.584441	-0.11081	0	0	0.0273744	-0.0844636	-0.199813	0	-0.36243	0	0	0.136992	0.0658789	0.0648896	-0.141724	-0.122522	-0.39714	0.77814	0.983813	0	0	0.187798	-0.117942	0.262936	0.31387	1.5708	0	0
15.24	-2.50553	1.46479	1.2024	0.666092	1.88253	0.909996	0.122794	-0.100487	-0.207836	0.511391	-0.135733	0	0	-0.0452727	-0.0669471	-0.258839	0	-0.372785	0	0	0.0988101	0.0752751	0.0537446	-0.157424	-0.141716	-0.386471	0.792548	0.980553	0	0	0.179608	-0.0972471	0.25416	0.301553	1.5708	0	0
15.25	-2.52423	1.45479	1.2084	0.658771	1.88612	0.908563	0.143701	-0.0818166	-0.160045	0.511772	-0.13774	0	0	-0.0268465	-0.079081	-0.227445	0	-0.367872	0	0	0.0964305	0.0677331	0.0632123	-0.138384	-0.132294	-0.377026	0.783535	0.978463	0	0	0.189621	-0.10742	0.252011	0.309551	1.5708	0	0
15.26	-2.55182	1.45888	1.23278	0.664897	1.88137	0.909098	0.119726	-0.101236	-0.207858	0.487142	-0.139515	0	0	-0.0413187	-0.0653279	-0.264192	0	-0.367931	0	0	0.109306	0.0719706	0.0601716	-0.15132	-0.143927	-0.371583	0.784285	0.978735	0	0	0.17745	-0.0931638	0.252895	0.298059	1.5708	0	0
15.27	-2.64518	1.41846	1.30807	0.655928	1.88612	0.904745	0.192274	-0.0815614	-0.134827	0.520258	-0.123032	0	0	0.0156079	-0.0779933	-0.219507	0	-0.356498	0	0	0.14409	0.0619682	0.0746202	-0.13356	-0.129754	-0.369427	0.768113	0.980056	0	0	0.185873	-0.105581	0.267619	0.302168	1.5708	0	0
15.28	-2.66631	1.40559	1.32243	0.654305	1.88689	0.903387	0.208601	-0.0780728	-0.125026	0.520201	-0.121166	0	0	0.0318543	-0.0798442	-0.205337	0	-0.352297	0	0	0.158116	0.0609295	0.0782718	-0.130069	-0.128511	-0.365683	0.764305	0.979789	0	0	0.188958	-0.105476	0.287423	0.297002	1.5708	0	0
15.29	-2.6825	1.39507	1.33	0.652968	1.887	0.902443	0.219657	-0.0740086	-0.113931	0.514525	-0.121965	0	0	0.0434876	-0.0812113	-0.201881	0	-0.348187	0	0	0.172399	0.061345	0.0834278	-0.126677	-0.129995	-0.356505	0.756765	0.978808	0	0	0.16092	-0.139094	0.406502	0.337165	1.5708	0	0
15.3	-2.69073	1.39358	1.3323	0.652648	1.88632	0.902214	0.217368	-0.0738212	-0.114812	0.505594	-0.122884	0	0	0.0431571	-0.0802507	-0.206752	0	-0.346952	0	0	0.176468	0.0615233	0.0841637	-0.124026	-0.131419	-0.350036	0.753775	0.978117	0	0	0.159681	-0.137073	0.414879	0.334405	1.5708	0	0
15.31	-2.70113	1.39214	1.33697	0.652453	1.88554	0.902074	0.216028	-0.0743199	-0.115696	0.49969	-0.12208	0	0	0.0423897	-0.0784695	-0.209599	0	-0.347117	0	0	0.181098	0.0624697	0.0848999	-0.122635	-0.130961	-0.350626	0.753059	0.9817	0	0	0.162843	-0.134429	0.441845	0.322314	1.5708	0	0
15.32	-2.70997	1.39307	1.34052	0.651992	1.8848	0.901905	0.212325	-0.0743073	-0.115366	0.494034	-0.121378	0	0	0.0396833	-0.0771019	-0.212682	0	-0.345946	0	0	0.18253	0.0603087	0.0880016	-0.121291	-0.131165	-0.347339	0.750735	0.98156	0	0	0.156029	-0.132387	0.426065	0.333176	1.5708	0	0
15.33	-2.71864	1.39364	1.34249	0.651535	1.88383	0.901838	0.208028	-0.0732238	-0.110442	0.485717	-0.120735	0	0	0.0367252	-0.0759632	-0.219578	0	-0.344769	0	0	0.185034	0.0599335	0.0889612	-0.118445	-0.132715	-0.339547	0.747004	0.981221	0	0	0.151001	-0.128632	0.415292	0.336828	1.5708	0	0
15.34	-2.72683	1.39337	1.34667	0.651112	1.88315	0.901679	0.20605	-0.0725164	-0.106607	0.481254	-0.119776	0	0	0.0355824	-0.0753057	-0.22056	0	-0.344211	0	0	0.188181	0.0592398	0.0884642	-0.11625	-0.13332	-0.334249	0.744526	0.981032	0	0	0.148062	-0.125796	0.414948	0.337633	1.5708	0	0
15.35	-2.73362	1.39432	1.34984	0.650539	1.8825	0.901607	0.201914	-0.0713754	-0.100642	0.474262	-0.118458	0	0	0.0335887	-0.0748901	-0.221766	0	-0.34272	0	0	0.188369	0.058035	0.0817875	-0.108829	-0.136295	-0.316893	0.738092	0.972819	0	0	0.168319	-0.0862862	0.271869	0.302961	1.5708	0	0
15.36	-2.74219	1.39435	1.35464	0.64993	1.8819	0.901496	0.201385	-0.0711728	-0.0959526	0.473166	-0.11748	0	0	0.0326436	-0.0740623	-0.219471	0	-0.342605	0	0	0.190978	0.0570444	0.0825904	-0.107713	-0.134421	-0.318579	0.737423	0.980821	0	0	0.167346	-0.0833873	0.277455	0.302595	1.5708	0	0
15.37	-2.74745	1.39521	1.35631	0.649259	1.88135	0.901489	0.198867	-0.0702496	-0.0897337	0.469089	-0.117123	0	0	0.0309415	-0.0737824	-0.220109	0	-0.341815	0	0	0.192422	0.056252	0.0815457	-0.103969	-0.134543	-0.313132	0.733209	0.980593	0	0	0.165118	-0.0811391	0.280196	0.304519	1.5708	0	0
